<svg width="160" height="80" viewBox="0 0 160 80" fill="none" xmlns="http://www.w3.org/2000/svg">
<g clip-path="url(#clip0)">
<path d="M26.8235 1.97752H7.66947C2.57239 1.97752 0 4.44804 0 9.34145V35.5312C0 36.1726 0.345042 36.5675 1.08843 36.5675H6.8784C7.57129 36.5675 8.01732 36.1726 8.01732 35.5312V34.5368C8.01732 32.1111 9.04123 30.789 11.5856 30.5341H26.8235C32.4143 30.5341 34.939 28.114 34.939 22.8257V9.68598C34.939 4.39762 32.4143 1.97752 26.8235 1.97752ZM26.9301 20.6016C26.9301 23.4699 26.2793 24.0609 22.8625 24.0609H14.747C11.3331 24.0609 9.15344 25.1981 8.01452 27.4222V11.2686C8.01452 9.04454 8.55873 8.45072 11.2798 8.45072H22.8625C26.2793 8.45072 26.9301 9.04454 26.9301 11.91V20.6016Z" fill="#9871F5"/>
<path d="M53.2992 16.4561C48.895 16.4561 47.0127 18.6801 47.0127 22.4363V35.6292C47.0127 36.223 46.7154 36.5675 46.0225 36.5675H40.7767C40.0838 36.5675 39.7388 36.223 39.7388 35.6292V11.5151C39.7388 10.9212 40.0838 10.5739 40.7767 10.5739H45.1809C45.8261 10.5739 46.1711 10.9212 46.1711 11.5151V15.4057C47.0127 12.1957 49.4392 10.5627 53.7452 10.5627H55.5266C56.1689 10.5627 56.514 10.91 56.514 11.5039V15.5177C56.514 16.1592 56.1689 16.4561 55.5266 16.4561H53.2992Z" fill="#9871F5"/>
<path d="M87.4442 29.5005C87.4442 34.3939 85.2673 36.5675 80.0721 36.5675H67.2045C62.0569 36.5675 59.8296 34.3939 59.8296 29.5005V17.6465C59.8296 12.7559 62.0569 10.5795 67.2045 10.5795H80.0721C85.2673 10.5795 87.4442 12.7559 87.4442 17.6465V29.5005ZM80.1703 19.5204C80.1703 16.9491 79.6765 16.4561 76.6076 16.4561H70.7167C67.6001 16.4561 67.1035 16.9491 67.1035 19.5204V27.6238C67.1035 30.1924 67.6001 30.6882 70.7167 30.6882H76.6076C79.6765 30.6882 80.1703 30.1924 80.1703 27.6238V19.5204Z" fill="#9871F5"/>
<path d="M94.769 16.4561H92.292C91.6468 16.4561 91.3018 16.1592 91.3018 15.5178V11.5151C91.3018 10.9212 91.6468 10.5739 92.292 10.5739H94.7662V7.36393C94.769 2.47052 97.3414 0 102.438 0H108.526C109.219 0 109.516 0.347329 109.516 0.938348V4.94103C109.516 5.58527 109.219 5.87938 108.526 5.87938H105.311C102.587 5.87938 102.043 6.4732 102.043 8.69722V10.5739H108.526C109.219 10.5739 109.516 10.9212 109.516 11.5151V15.5178C109.516 16.1592 109.219 16.4561 108.526 16.4561H102.043V35.6292C102.043 36.223 101.698 36.5676 101.005 36.5676H95.7592C95.0663 36.5676 94.769 36.223 94.769 35.6292V16.4561Z" fill="#9871F5"/>
<path d="M114.961 16.4561H112.489C111.847 16.4561 111.502 16.1592 111.502 15.5178V11.5151C111.502 10.9212 111.847 10.5739 112.489 10.5739H114.966V7.36393C114.961 2.47052 117.539 0 122.63 0H128.718C129.41 0 129.708 0.347329 129.708 0.938348V4.94103C129.708 5.58527 129.41 5.87938 128.718 5.87938H125.5C122.779 5.87938 122.235 6.4732 122.235 8.69722V10.5739H128.718C129.41 10.5739 129.708 10.9212 129.708 11.5151V15.5178C129.708 16.1592 129.41 16.4561 128.718 16.4561H122.235V35.6292C122.235 36.223 121.887 36.5676 121.194 36.5676H115.948C115.255 36.5676 114.961 36.223 114.961 35.6292V16.4561Z" fill="#9871F5"/>
<path d="M151.827 46.6485H141.038C136.191 46.6485 134.112 44.7718 134.112 40.1249V39.6319C134.098 39.4993 134.113 39.3651 134.158 39.2394C134.203 39.1137 134.275 38.9996 134.37 38.9057C134.465 38.8118 134.58 38.7404 134.706 38.6969C134.832 38.6534 134.967 38.6388 135.1 38.6543H140.149C140.842 38.6543 141.187 39.0016 141.187 39.6431V39.8896C141.187 40.8783 141.734 41.2733 142.822 41.2733H149.058C152.026 41.2733 152.77 40.5338 152.77 38.0129V30.2176C151.631 32.4416 149.454 33.5788 146.037 33.5788H140.988C135.84 33.5788 133.562 31.4052 133.562 26.5118V11.5151C133.556 11.3856 133.577 11.2561 133.625 11.1357C133.673 11.0152 133.747 10.9066 133.841 10.8172C133.935 10.7278 134.047 10.6597 134.17 10.6178C134.293 10.5758 134.423 10.5608 134.552 10.5739H139.849C140.491 10.5739 140.839 10.9212 140.839 11.5151V24.6491C140.839 27.2177 141.383 27.7135 144.452 27.7135H148.214C151.479 27.7135 152.767 26.3774 152.767 23.6604V11.5151C152.767 10.9212 153.112 10.5739 153.757 10.5739H159.056C159.183 10.5617 159.311 10.5777 159.43 10.6207C159.55 10.6637 159.659 10.7327 159.749 10.8227C159.839 10.9127 159.907 11.0215 159.95 11.1412C159.993 11.2609 160.008 11.3886 159.996 11.5151V38.7916C159.993 43.9763 157.221 46.6485 151.827 46.6485Z" fill="#9871F5"/>
</g>
<path d="M7.03421 60.4296C7.03421 57.0105 2.04398 58.4948 2.04398 56.1094C2.04398 55.1155 2.82702 54.5987 3.82241 54.6252C4.95052 54.6384 5.53449 55.3408 5.61412 55.9636H6.94131C6.79532 54.5589 5.64066 53.5915 3.8755 53.5915C2.04398 53.5915 0.809695 54.6252 0.809695 56.1492C0.809695 59.5814 5.8132 57.9912 5.8132 60.4826C5.8132 61.3572 5.12306 62.0198 3.95513 62.0198C2.66776 62.0198 2.12361 61.2512 2.04398 60.4826H0.756607C0.783151 62.0066 2.09707 63.0402 3.95513 63.0402C5.95919 63.0402 7.03421 61.7415 7.03421 60.4296Z" fill="#D4C2FF"/>
<path d="M15.2616 55.6853H14.0539V59.6742C14.0539 61.238 13.2178 62.0066 11.9702 62.0066C10.7492 62.0066 9.93961 61.2512 9.93961 59.7802V55.6853H8.74514V59.9393C8.74514 62.0198 10.0591 63.0535 11.7313 63.0535C12.7002 63.0535 13.5894 62.6294 14.0539 61.8741V62.9475H15.2616V55.6853Z" fill="#D4C2FF"/>
<path d="M16.8496 59.2899C16.8496 61.5428 18.3493 63.0668 20.287 63.0668C21.6275 63.0668 22.5698 62.3776 23.0078 61.5958V62.9475H24.2288V55.6853H23.0078V57.0105C22.5831 56.2552 21.654 55.5661 20.3003 55.5661C18.3493 55.5661 16.8496 57.0238 16.8496 59.2899ZM23.0078 59.3032C23.0078 61.0127 21.8664 62.0066 20.5392 62.0066C19.212 62.0066 18.0839 60.9994 18.0839 59.2899C18.0839 57.5804 19.212 56.613 20.5392 56.613C21.8664 56.613 23.0078 57.6201 23.0078 59.3032Z" fill="#D4C2FF"/>
<path d="M31.0158 57.0238V55.6853H29.808V66.393H31.0158V61.609C31.467 62.3511 32.4093 63.0668 33.7365 63.0668C35.6875 63.0668 37.1872 61.5428 37.1872 59.2899C37.1872 57.0238 35.6875 55.5661 33.7365 55.5661C32.4093 55.5661 31.4538 56.2552 31.0158 57.0238ZM35.9529 59.2899C35.9529 60.9994 34.8248 62.0066 33.4844 62.0066C32.1704 62.0066 31.0158 61.0127 31.0158 59.3032C31.0158 57.6201 32.1704 56.613 33.4844 56.613C34.8248 56.613 35.9529 57.5804 35.9529 59.2899Z" fill="#D4C2FF"/>
<path d="M38.7769 62.9475H39.9847V53.1409H38.7769V62.9475Z" fill="#D4C2FF"/>
<path d="M41.5918 59.2899C41.5918 61.5428 43.0915 63.0668 45.0292 63.0668C46.3697 63.0668 47.312 62.3776 47.75 61.5958V62.9475H48.971V55.6853H47.75V57.0105C47.3253 56.2552 46.3962 55.5661 45.0425 55.5661C43.0915 55.5661 41.5918 57.0238 41.5918 59.2899ZM47.75 59.3032C47.75 61.0127 46.6086 62.0066 45.2814 62.0066C43.9542 62.0066 42.8261 60.9994 42.8261 59.2899C42.8261 57.5804 43.9542 56.613 45.2814 56.613C46.6086 56.613 47.75 57.6201 47.75 59.3032Z" fill="#D4C2FF"/>
<path d="M51.2376 62.9475H52.4453V56.6792H53.9716V55.6853H52.4453V55.1685C52.4453 54.2276 52.8037 53.83 53.892 53.83V52.8229C52.0339 52.8229 51.2376 53.5517 51.2376 55.1685V55.6853H50.2953V56.6792H51.2376V62.9475Z" fill="#D4C2FF"/>
<path d="M62.2811 59.3032C62.2811 57.0105 60.6752 55.5661 58.6048 55.5661C56.5477 55.5661 54.9285 57.0105 54.9285 59.3032C54.9285 61.609 56.4946 63.0668 58.5517 63.0668C60.6222 63.0668 62.2811 61.609 62.2811 59.3032ZM56.1628 59.3032C56.1628 57.4744 57.3175 56.613 58.5916 56.613C59.8391 56.613 61.0469 57.4744 61.0469 59.3032C61.0469 61.1452 59.8126 62.0066 58.5517 62.0066C57.2909 62.0066 56.1628 61.1452 56.1628 59.3032Z" fill="#D4C2FF"/>
<path d="M65.0768 58.9984C65.0768 57.3153 65.9528 56.7985 67.1074 56.7985H67.426V55.5528C66.2713 55.5528 65.4883 56.0564 65.0768 56.8648V55.6853H63.8691V62.9475H65.0768V58.9984Z" fill="#D4C2FF"/>
<path d="M79.3182 62.9475H80.5127V58.6671C80.5127 56.5865 79.2253 55.5528 77.5663 55.5528C76.4515 55.5528 75.4163 56.1226 74.9916 57.1696C74.5138 56.0829 73.5184 55.5528 72.3239 55.5528C71.3683 55.5528 70.5057 55.9636 70.0279 56.7322V55.6853H68.8201V62.9475H70.0279V58.9453C70.0279 57.3816 70.864 56.5997 72.085 56.5997C73.2795 56.5997 74.0758 57.3551 74.0758 58.8393V62.9475H75.2703V58.9453C75.2703 57.3816 76.1064 56.5997 77.3274 56.5997C78.5219 56.5997 79.3182 57.3551 79.3182 58.8393V62.9475Z" fill="#D4C2FF"/>
<path d="M82.0426 59.2899C82.0426 61.5428 83.5423 63.0668 85.48 63.0668C86.8205 63.0668 87.7628 62.3776 88.2007 61.5958V62.9475H89.4217V55.6853H88.2007V57.0105C87.776 56.2552 86.847 55.5661 85.4933 55.5661C83.5423 55.5661 82.0426 57.0238 82.0426 59.2899ZM88.2007 59.3032C88.2007 61.0127 87.0593 62.0066 85.7322 62.0066C84.405 62.0066 83.2769 60.9994 83.2769 59.2899C83.2769 57.5804 84.405 56.613 85.7322 56.613C87.0593 56.613 88.2007 57.6201 88.2007 59.3032Z" fill="#D4C2FF"/>
<path d="M94.5498 59.2899C94.5498 61.5428 96.0495 63.0668 98.0005 63.0668C99.3276 63.0668 100.27 62.3909 100.708 61.5825V62.9475H101.929V53.1409H100.708V56.984C100.204 56.1492 99.1551 55.5661 98.0137 55.5661C96.0495 55.5661 94.5498 57.0238 94.5498 59.2899ZM100.708 59.3032C100.708 61.0127 99.5665 62.0066 98.2394 62.0066C96.9122 62.0066 95.7841 60.9994 95.7841 59.2899C95.7841 57.5804 96.9122 56.613 98.2394 56.613C99.5665 56.613 100.708 57.6201 100.708 59.3032Z" fill="#D4C2FF"/>
<path d="M107.062 56.5865C108.31 56.5865 109.372 57.3683 109.358 58.7863H104.766C104.899 57.3683 105.881 56.5865 107.062 56.5865ZM110.46 60.7079H109.159C108.894 61.4898 108.204 62.0463 107.115 62.0463C105.881 62.0463 104.846 61.238 104.753 59.767H110.566C110.593 59.5152 110.606 59.3032 110.606 59.0381C110.606 57.0503 109.226 55.5661 107.115 55.5661C104.992 55.5661 103.519 57.0105 103.519 59.3032C103.519 61.609 105.045 63.0668 107.115 63.0668C108.92 63.0668 110.088 62.0331 110.46 60.7079Z" fill="#D4C2FF"/>
<path d="M4.1144 73.5197C5.36195 73.5197 6.4237 74.3016 6.41043 75.7196H1.81836C1.95108 74.3016 2.9332 73.5197 4.1144 73.5197ZM7.512 77.6411H6.21135C5.94592 78.423 5.25578 78.9796 4.16748 78.9796C2.9332 78.9796 1.89799 78.1712 1.80509 76.7002H7.61817C7.64472 76.4484 7.65799 76.2364 7.65799 75.9714C7.65799 73.9835 6.27771 72.4993 4.16748 72.4993C2.04398 72.4993 0.570801 73.9438 0.570801 76.2364C0.570801 78.5423 2.09707 80 4.16748 80C5.97246 80 7.14039 78.9663 7.512 77.6411Z" fill="#D4C2FF"/>
<path d="M14.4813 77.9062C14.4282 75.3087 10.2077 76.2496 10.2077 74.5269C10.2077 73.9438 10.7386 73.5197 11.6278 73.5197C12.5967 73.5197 13.1541 74.0498 13.2072 74.7787H14.4149C14.3353 73.3607 13.2736 72.4993 11.6677 72.4993C10.0485 72.4993 9.00001 73.4137 9.00001 74.5269C9.00001 77.2303 13.3001 76.2894 13.3001 77.9062C13.3001 78.5025 12.7692 78.9796 11.8136 78.9796C10.7917 78.9796 10.1679 78.4495 10.1016 77.7471H8.85401C8.93365 79.0723 10.1281 80 11.8269 80C13.4328 80 14.4813 79.0988 14.4813 77.9062Z" fill="#D4C2FF"/>
<path d="M16.4517 77.8929C16.4517 79.3506 17.1816 79.8807 18.469 79.8807H19.5573V78.8603H18.6681C17.9248 78.8603 17.6594 78.6085 17.6594 77.8929V73.6125H19.5573V72.6186H17.6594V70.7898H16.4517V72.6186H15.5093V73.6125H16.4517V77.8929Z" fill="#D4C2FF"/>
<path d="M27.4707 72.6186H26.263V76.6075C26.263 78.1712 25.4269 78.9398 24.1793 78.9398C22.9583 78.9398 22.1487 78.1845 22.1487 76.7135V72.6186H20.9542V76.8725C20.9542 78.9531 22.2682 79.9867 23.9404 79.9867C24.9093 79.9867 25.7985 79.5627 26.263 78.8073V79.8807H27.4707V72.6186Z" fill="#D4C2FF"/>
<path d="M29.0587 76.2231C29.0587 78.476 30.5584 80 32.5094 80C33.8366 80 34.7789 79.3241 35.2169 78.5158V79.8807H36.4379V70.0742H35.2169V73.9173C34.7125 73.0824 33.664 72.4993 32.5227 72.4993C30.5584 72.4993 29.0587 73.957 29.0587 76.2231ZM35.2169 76.2364C35.2169 77.9459 34.0755 78.9398 32.7483 78.9398C31.4211 78.9398 30.293 77.9327 30.293 76.2231C30.293 74.5136 31.4211 73.5462 32.7483 73.5462C34.0755 73.5462 35.2169 74.5534 35.2169 76.2364Z" fill="#D4C2FF"/>
<path d="M45.3802 76.2364C45.3802 73.9438 43.7743 72.4993 41.7039 72.4993C39.6468 72.4993 38.0276 73.9438 38.0276 76.2364C38.0276 78.5423 39.5937 80 41.6508 80C43.7212 80 45.3802 78.5423 45.3802 76.2364ZM39.2619 76.2364C39.2619 74.4076 40.4165 73.5462 41.6906 73.5462C42.9382 73.5462 44.1459 74.4076 44.1459 76.2364C44.1459 78.0784 42.9117 78.9398 41.6508 78.9398C40.39 78.9398 39.2619 78.0784 39.2619 76.2364Z" fill="#D4C2FF"/>
<path d="M52.1973 77.9062C52.1442 75.3087 47.9238 76.2496 47.9238 74.5269C47.9238 73.9438 48.4546 73.5197 49.3439 73.5197C50.3127 73.5197 50.8701 74.0498 50.9232 74.7787H52.1309C52.0513 73.3607 50.9896 72.4993 49.3837 72.4993C47.7645 72.4993 46.716 73.4137 46.716 74.5269C46.716 77.2303 51.0161 76.2894 51.0161 77.9062C51.0161 78.5025 50.4852 78.9796 49.5297 78.9796C48.5077 78.9796 47.8839 78.4495 47.8176 77.7471H46.57C46.6497 79.0723 47.8441 80 49.5429 80C51.1488 80 52.1973 79.0988 52.1973 77.9062Z" fill="#D4C2FF"/>
<path d="M64.3419 76.2364C64.3419 73.9438 62.736 72.4993 60.6656 72.4993C58.6085 72.4993 56.9893 73.9438 56.9893 76.2364C56.9893 78.5423 58.5554 80 60.6125 80C62.6829 80 64.3419 78.5423 64.3419 76.2364ZM58.2236 76.2364C58.2236 74.4076 59.3782 73.5462 60.6523 73.5462C61.8999 73.5462 63.1076 74.4076 63.1076 76.2364C63.1076 78.0784 61.8733 78.9398 60.6125 78.9398C59.3517 78.9398 58.2236 78.0784 58.2236 76.2364Z" fill="#D4C2FF"/>
<path d="M71.2519 79.8807H72.4464V75.6003C72.4464 73.5197 71.159 72.486 69.4735 72.486C68.4914 72.486 67.6154 72.8969 67.1376 73.6522V72.6186H65.9299V79.8807H67.1376V75.8653C67.1376 74.3016 67.987 73.533 69.2213 73.533C70.4423 73.533 71.2519 74.2883 71.2519 75.7726V79.8807Z" fill="#D4C2FF"/>
<path d="M74.4192 79.8807H75.627V70.0742H74.4192V79.8807Z" fill="#D4C2FF"/>
<path d="M77.6853 79.8807H78.8931V72.6186H77.6853V79.8807ZM78.3091 71.4391C78.7471 71.4391 79.1054 71.0813 79.1054 70.6175C79.1054 70.1537 78.7471 69.7959 78.3091 69.7959C77.8446 69.7959 77.4863 70.1537 77.4863 70.6175C77.4863 71.0813 77.8446 71.4391 78.3091 71.4391Z" fill="#D4C2FF"/>
<path d="M86.2735 79.8807H87.468V75.6003C87.468 73.5197 86.1806 72.486 84.4951 72.486C83.513 72.486 82.637 72.8969 82.1592 73.6522V72.6186H80.9515V79.8807H82.1592V75.8653C82.1592 74.3016 83.0086 73.533 84.2429 73.533C85.4639 73.533 86.2735 74.2883 86.2735 75.7726V79.8807Z" fill="#D4C2FF"/>
<path d="M92.5332 73.5197C93.7807 73.5197 94.8425 74.3016 94.8292 75.7196H90.2371C90.3699 74.3016 91.352 73.5197 92.5332 73.5197ZM95.9308 77.6411H94.6301C94.3647 78.423 93.6746 78.9796 92.5863 78.9796C91.352 78.9796 90.3168 78.1712 90.2239 76.7002H96.0369C96.0635 76.4484 96.0768 76.2364 96.0768 75.9714C96.0768 73.9835 94.6965 72.4993 92.5863 72.4993C90.4628 72.4993 88.9896 73.9438 88.9896 76.2364C88.9896 78.5423 90.5158 80 92.5863 80C94.3912 80 95.5592 78.9663 95.9308 77.6411Z" fill="#D4C2FF"/>
<path d="M98.8521 79.1386C98.8521 78.6748 98.4938 78.317 98.0558 78.317C97.5913 78.317 97.233 78.6748 97.233 79.1386C97.233 79.6024 97.5913 79.9602 98.0558 79.9602C98.4938 79.9602 98.8521 79.6024 98.8521 79.1386Z" fill="#D4C2FF"/>
<defs>
<clipPath id="clip0">
<rect width="160" height="46.7505" fill="white"/>
</clipPath>
</defs>
</svg>
